<svg xmlns="http://www.w3.org/2000/svg" width="1600" height="900"><style>.t{font-family:Arial,sans-serif;fill:#09235b}.h{font-size:43px;font-weight:700}.s{font-size:24px;fill:#496a9c}.ch{font-size:25px;font-weight:700}.b{font-size:19px}.sm{font-size:16px;fill:#53729d}.c{fill:#fff;stroke:#b8d7f2;stroke-width:2}.bl{fill:#eef7ff}.gr{fill:#edf9f3}.yl{fill:#fff8e7}.ln{stroke:#0c84c6;stroke-width:4;fill:none}</style><rect width="1600" height="900" fill="#fff"/><text x="36" y="62" class="t h">03 — GitOps et déploiement</text><text x="38" y="101" class="t s">Git, Kustomize et Argo CD pour piloter CRC, preprod et prod</text><text x="1295" y="58" class="t b">● ● ● ○ ○ ○ ○ ○ ○ ○</text><text x="1305" y="88" class="t sm">3 / 10</text><line x1="1472" y1="28" x2="1472" y2="93" stroke="#8fc9eb"/><text x="1490" y="62" class="t sm">Du code au cluster</text><rect x="30" y="135" width="355" height="620" rx="18" class="c"/><text x="65" y="180" class="t ch">Chaîne GitOps</text><g class="t b" text-anchor="middle"><rect x="70" y="215" width="275" height="62" rx="11" class="bl"/><text x="207" y="253">Repository GitHub</text><rect x="70" y="305" width="275" height="62" rx="11" class="bl"/><text x="207" y="343">Base + components</text><rect x="70" y="395" width="275" height="62" rx="11" class="bl"/><text x="207" y="433">Overlays</text><rect x="70" y="485" width="275" height="62" rx="11" class="bl"/><text x="207" y="523">Kustomize</text><rect x="70" y="575" width="275" height="62" rx="11" class="bl"/><text x="207" y="602">Argo CD /</text><text x="207" y="625">ApplicationSet</text><rect x="70" y="665" width="275" height="62" rx="11" class="bl"/><text x="207" y="703">OpenShift</text></g><g class="ln"><path d="M207 277V305"/><path d="M207 367V395"/><path d="M207 457V485"/><path d="M207 547V575"/><path d="M207 637V665"/></g><rect x="410" y="135" width="705" height="620" rx="18" class="c"/><text x="445" y="180" class="t ch">Environnements</text><g class="t" text-anchor="middle"><rect x="445" y="215" width="200" height="465" rx="15" class="bl"/><text x="545" y="260" class="ch">CRC</text><text x="545" y="292" class="sm">Lab / Développement</text><text x="545" y="370" class="b">✓ lab mono-nœud</text><text x="545" y="415" class="b">✓ validation V6</text><text x="545" y="460" class="b">✓ mocks locaux</text><text x="545" y="610" class="sm">Environnement local</text><text x="545" y="636" class="sm">rapide et flexible</text><rect x="665" y="215" width="200" height="465" rx="15" class="yl"/><text x="765" y="260" class="ch">Preprod</text><text x="765" y="292" class="sm">Validation / Recette</text><text x="765" y="370" class="b">✓ cible 2 replicas</text><text x="765" y="415" class="b">✓ 2 zones logiques</text><text x="765" y="460" class="b">✓ validation design</text><text x="765" y="610" class="sm">Proche de la production</text><text x="765" y="636" class="sm">pour valider l’architecture</text><rect x="885" y="215" width="200" height="465" rx="15" class="gr"/><text x="985" y="260" class="ch">Prod</text><text x="985" y="292" class="sm">Production</text><text x="985" y="370" class="b">✓ cible 3 replicas</text><text x="985" y="415" class="b">✓ 3 zones logiques</text><text x="985" y="460" class="b">✓ frontdoor HA</text><text x="985" y="610" class="sm">Environnement</text><text x="985" y="636" class="sm">haute disponibilité</text></g><rect x="1140" y="135" width="430" height="620" rx="18" class="c"/><text x="1175" y="180" class="t ch">Ce qui est automatisé</text><g class="t b" text-anchor="middle"><rect x="1175" y="220" width="165" height="130" rx="13" class="bl"/><text x="1257" y="272">Rendu Kustomize</text><text x="1257" y="302" class="sm">manifests par overlay</text><rect x="1360" y="220" width="175" height="130" rx="13" class="bl"/><text x="1447" y="272">Contrôles CI</text><text x="1447" y="302" class="sm">lint + tests</text><rect x="1175" y="375" width="165" height="130" rx="13" class="bl"/><text x="1257" y="425">Applications /</text><text x="1257" y="450">ApplicationSets</text><rect x="1360" y="375" width="175" height="130" rx="13" class="bl"/><text x="1447" y="425">Promotion</text><text x="1447" y="450">par digest</text><rect x="1175" y="530" width="165" height="130" rx="13" class="bl"/><text x="1257" y="580">Préparation</text><text x="1257" y="605">Argo Rollouts</text><rect x="1360" y="530" width="175" height="130" rx="13" class="bl"/><text x="1447" y="580">Aucun secret</text><text x="1447" y="605">réel commité</text></g><rect x="30" y="790" width="1540" height="75" rx="14" fill="#eef6fd"/><text x="55" y="835" class="t sm">CRC prouve la logique applicative et la résilience contrôlée ; les overlays preprod/prod préparent la haute disponibilité sans la sur-prouver.</text></svg>